<svg id="svg" version="1.1" xmlns="http://www.w3.org/2000/svg" xmlns:xlink="http://www.w3.org/1999/xlink" width="400" height="400" viewBox="0, 0, 400,400"><g id="svgg"><path id="path0" d="M342.116 51.408 C 340.090 51.712,338.020 52.221,337.516 52.539 C 337.012 52.857,336.153 53.251,335.606 53.415 C 332.476 54.355,326.408 60.684,325.397 64.062 C 325.243 64.578,324.881 65.374,324.594 65.832 C 323.029 68.322,322.108 78.562,322.780 86.000 C 322.989 88.310,323.355 95.240,323.594 101.400 C 323.833 107.560,324.285 115.030,324.600 118.000 C 324.914 120.970,325.360 127.540,325.590 132.600 C 325.821 137.660,326.188 142.970,326.406 144.400 C 326.624 145.830,326.980 151.410,327.197 156.800 C 327.415 162.190,327.851 168.760,328.167 171.400 C 328.483 174.040,328.855 178.720,328.993 181.800 C 329.147 185.228,329.546 188.590,330.022 190.467 C 330.450 192.153,330.804 194.133,330.809 194.867 C 330.814 195.600,331.154 196.941,331.565 197.846 C 331.976 198.752,332.446 200.102,332.609 200.846 C 332.771 201.591,333.241 202.629,333.652 203.154 C 334.063 203.679,334.405 204.309,334.412 204.554 C 334.521 208.698,346.311 211.564,351.274 208.653 C 354.418 206.809,355.636 205.185,358.211 199.400 C 359.201 197.175,360.761 189.031,361.007 184.800 C 361.142 182.490,361.415 179.968,361.616 179.195 C 361.816 178.422,362.169 174.372,362.400 170.195 C 362.631 166.018,362.994 161.625,363.208 160.434 C 363.422 159.243,363.789 155.373,364.023 151.834 C 364.258 148.295,364.789 142.250,365.203 138.400 C 365.617 134.550,366.068 129.060,366.204 126.200 C 366.340 123.340,366.702 119.380,367.007 117.400 C 367.313 115.420,367.676 111.370,367.814 108.400 C 367.952 105.430,368.320 100.440,368.632 97.311 C 369.276 90.859,369.341 83.619,368.793 79.200 C 368.589 77.550,368.240 74.546,368.017 72.526 C 366.627 59.931,360.720 52.244,351.800 51.424 C 350.260 51.283,348.280 51.097,347.400 51.012 C 346.520 50.926,344.142 51.105,342.116 51.408 M47.600 113.565 C 45.510 113.948,43.260 114.561,42.600 114.928 C 41.940 115.295,41.187 115.596,40.926 115.598 C 40.197 115.601,34.728 120.084,33.570 121.628 C 23.602 134.909,32.468 156.053,48.990 158.399 C 67.487 161.024,81.438 141.964,73.289 125.200 C 69.778 117.976,60.155 112.387,52.000 112.836 C 51.670 112.854,49.690 113.182,47.600 113.565 M140.000 113.538 C 136.326 114.184,134.313 115.136,131.194 117.701 C 129.033 119.478,126.855 123.586,125.628 128.200 L 124.776 131.400 124.908 197.800 C 125.039 263.333,125.051 264.237,125.859 267.000 C 127.939 274.111,131.255 278.146,137.600 281.287 C 140.706 282.824,150.426 283.256,152.440 281.946 C 152.968 281.602,154.105 281.090,154.967 280.808 C 157.358 280.024,162.385 274.843,163.902 271.600 C 166.805 265.392,166.775 265.887,166.957 222.400 C 167.064 196.662,167.266 182.720,167.551 181.400 C 167.788 180.300,168.182 177.960,168.427 176.200 C 168.672 174.440,169.202 172.100,169.605 171.000 C 170.007 169.900,170.462 168.550,170.615 168.000 C 170.769 167.450,171.122 166.730,171.400 166.400 C 171.678 166.070,172.037 165.350,172.199 164.800 C 172.360 164.250,172.809 163.440,173.196 163.000 C 173.583 162.560,174.127 161.761,174.404 161.225 C 176.342 157.478,183.472 151.289,188.800 148.730 C 193.893 146.284,196.405 145.800,204.000 145.800 C 211.882 145.800,214.293 146.313,219.356 149.068 C 220.994 149.960,225.458 154.516,225.804 155.650 C 225.964 156.172,226.328 156.870,226.613 157.200 C 227.187 157.865,228.628 161.721,229.230 164.200 C 229.982 167.298,230.502 169.416,230.901 171.000 C 231.149 171.987,231.418 189.523,231.602 216.800 C 231.924 264.303,232.054 267.058,234.125 270.015 C 234.496 270.545,234.800 271.282,234.800 271.653 C 234.800 272.902,238.706 277.479,241.438 279.431 C 250.394 285.831,265.879 282.523,270.059 273.317 C 270.479 272.391,270.984 271.534,271.181 271.412 C 271.377 271.290,271.661 270.608,271.811 269.895 C 271.961 269.183,272.431 267.552,272.856 266.270 C 273.955 262.955,273.838 162.928,272.730 158.200 C 272.369 156.660,271.896 154.320,271.680 153.000 C 270.575 146.247,265.585 136.353,260.133 130.103 C 258.123 127.799,252.344 122.800,251.690 122.800 C 251.475 122.800,251.051 122.502,250.749 122.138 C 250.447 121.774,249.660 121.223,249.000 120.914 C 248.340 120.604,246.720 119.747,245.400 119.008 C 244.080 118.270,242.723 117.650,242.385 117.633 C 242.046 117.615,241.084 117.250,240.246 116.823 C 239.408 116.396,238.154 115.936,237.461 115.802 C 236.767 115.667,235.030 115.214,233.600 114.796 C 226.116 112.605,209.215 112.604,201.600 114.794 C 200.170 115.205,198.370 115.724,197.600 115.947 C 193.177 117.227,186.886 120.131,184.544 121.973 C 183.965 122.428,183.317 122.800,183.104 122.800 C 182.890 122.800,182.150 123.248,181.458 123.796 C 180.766 124.345,179.840 125.053,179.400 125.370 C 175.783 127.981,172.260 131.378,166.800 137.518 C 164.079 140.578,164.002 140.577,163.993 137.500 C 163.954 123.548,158.471 115.406,147.800 113.456 C 145.820 113.094,144.110 112.814,144.000 112.834 C 143.890 112.853,142.090 113.170,140.000 113.538 M47.863 186.238 C 44.226 187.802,42.816 189.475,40.143 195.400 C 39.845 196.060,39.423 197.562,39.204 198.737 C 38.986 199.912,38.558 201.622,38.254 202.537 C 37.951 203.452,37.584 206.000,37.440 208.200 C 37.295 210.400,36.917 214.000,36.599 216.200 C 36.281 218.400,35.829 223.518,35.595 227.574 C 35.362 231.630,35.002 235.697,34.797 236.613 C 34.592 237.529,34.235 241.590,34.004 245.639 C 33.773 249.688,33.322 254.890,33.002 257.200 C 32.682 259.510,32.236 264.550,32.011 268.400 C 31.786 272.250,31.336 277.290,31.010 279.600 C 30.684 281.910,30.413 285.330,30.408 287.200 C 30.403 289.070,30.131 293.120,29.804 296.200 C 29.041 303.381,29.039 314.262,29.800 319.200 C 30.122 321.290,30.397 323.720,30.410 324.600 C 30.424 325.480,30.711 326.920,31.047 327.800 C 31.384 328.680,31.846 330.210,32.074 331.200 C 32.302 332.190,32.718 333.270,32.997 333.600 C 33.277 333.930,33.643 334.650,33.810 335.200 C 34.596 337.777,37.794 341.016,41.100 342.584 C 44.958 344.413,45.477 344.534,50.200 344.700 C 55.053 344.872,56.367 344.687,60.465 343.255 C 65.303 341.565,72.800 334.531,72.800 331.683 C 72.800 331.431,73.148 330.544,73.572 329.712 C 75.322 326.286,75.917 317.931,75.203 306.793 C 74.985 303.387,74.625 296.280,74.402 291.000 C 74.180 285.720,73.817 280.230,73.597 278.800 C 73.376 277.370,73.016 272.150,72.797 267.200 C 72.578 262.250,72.135 256.040,71.813 253.400 C 71.491 250.760,71.118 245.360,70.983 241.400 C 70.848 237.440,70.484 232.220,70.174 229.800 C 69.864 227.380,69.429 221.710,69.208 217.200 C 68.988 212.690,68.604 208.280,68.357 207.400 C 68.109 206.520,67.674 204.270,67.389 202.400 C 65.330 188.885,57.254 182.200,47.863 186.238 M338.600 237.669 C 329.455 241.377,324.776 246.835,322.983 255.888 C 322.211 259.785,323.103 267.812,324.503 269.568 C 324.780 269.916,325.350 270.877,325.769 271.704 C 327.393 274.912,333.262 279.902,336.301 280.659 C 336.905 280.810,338.120 281.259,339.000 281.658 C 342.753 283.357,354.225 282.214,357.200 279.844 C 357.530 279.581,358.334 279.103,358.987 278.783 C 362.298 277.157,367.239 270.710,367.832 267.243 C 367.968 266.449,368.331 264.912,368.639 263.827 C 369.365 261.274,369.352 258.228,368.604 255.764 C 368.277 254.684,368.007 253.474,368.004 253.075 C 367.986 250.012,361.393 241.811,357.200 239.634 C 351.745 236.803,343.010 235.880,338.600 237.669 " stroke="none" fill="#fbf6f7" fill-rule="evenodd"></path><path id="path1" d="M0.000 200.000 L 0.000 400.000 200.000 400.000 L 400.000 400.000 400.000 200.000 L 400.000 0.000 200.000 0.000 L 0.000 0.000 0.000 200.000 M351.800 51.424 C 360.720 52.244,366.627 59.931,368.017 72.526 C 368.240 74.546,368.589 77.550,368.793 79.200 C 369.341 83.619,369.276 90.859,368.632 97.311 C 368.320 100.440,367.952 105.430,367.814 108.400 C 367.676 111.370,367.313 115.420,367.007 117.400 C 366.702 119.380,366.340 123.340,366.204 126.200 C 366.068 129.060,365.617 134.550,365.203 138.400 C 364.789 142.250,364.258 148.295,364.023 151.834 C 363.789 155.373,363.422 159.243,363.208 160.434 C 362.994 161.625,362.631 166.018,362.400 170.195 C 362.169 174.372,361.816 178.422,361.616 179.195 C 361.415 179.968,361.142 182.490,361.007 184.800 C 360.761 189.031,359.201 197.175,358.211 199.400 C 355.636 205.185,354.418 206.809,351.274 208.653 C 346.311 211.564,334.521 208.698,334.412 204.554 C 334.405 204.309,334.063 203.679,333.652 203.154 C 333.241 202.629,332.771 201.591,332.609 200.846 C 332.446 200.102,331.976 198.752,331.565 197.846 C 331.154 196.941,330.814 195.600,330.809 194.867 C 330.804 194.133,330.450 192.153,330.022 190.467 C 329.546 188.590,329.147 185.228,328.993 181.800 C 328.855 178.720,328.483 174.040,328.167 171.400 C 327.851 168.760,327.415 162.190,327.197 156.800 C 326.980 151.410,326.624 145.830,326.406 144.400 C 326.188 142.970,325.821 137.660,325.590 132.600 C 325.360 127.540,324.914 120.970,324.600 118.000 C 324.285 115.030,323.833 107.560,323.594 101.400 C 323.355 95.240,322.989 88.310,322.780 86.000 C 322.108 78.562,323.029 68.322,324.594 65.832 C 324.881 65.374,325.243 64.578,325.397 64.062 C 326.408 60.684,332.476 54.355,335.606 53.415 C 336.153 53.251,337.012 52.857,337.516 52.539 C 338.655 51.820,345.242 50.802,347.400 51.012 C 348.280 51.097,350.260 51.283,351.800 51.424 M56.400 113.407 C 62.919 114.442,67.824 117.327,71.810 122.471 C 81.497 134.972,72.102 156.307,55.988 158.402 C 35.835 161.021,21.569 137.618,33.570 121.628 C 34.728 120.084,40.197 115.601,40.926 115.598 C 41.187 115.596,41.940 115.295,42.600 114.928 C 43.608 114.368,49.993 112.947,52.000 112.836 C 52.330 112.818,54.310 113.075,56.400 113.407 M147.800 113.456 C 158.471 115.406,163.954 123.548,163.993 137.500 C 164.002 140.577,164.079 140.578,166.800 137.518 C 172.260 131.378,175.783 127.981,179.400 125.370 C 179.840 125.053,180.766 124.345,181.458 123.796 C 182.150 123.248,182.890 122.800,183.104 122.800 C 183.317 122.800,183.965 122.428,184.544 121.973 C 186.886 120.131,193.177 117.227,197.600 115.947 C 198.370 115.724,200.170 115.205,201.600 114.794 C 209.215 112.604,226.116 112.605,233.600 114.796 C 235.030 115.214,236.767 115.667,237.461 115.802 C 238.154 115.936,239.408 116.396,240.246 116.823 C 241.084 117.250,242.046 117.615,242.385 117.633 C 242.723 117.650,244.080 118.270,245.400 119.008 C 246.720 119.747,248.340 120.604,249.000 120.914 C 249.660 121.223,250.447 121.774,250.749 122.138 C 251.051 122.502,251.475 122.800,251.690 122.800 C 254.345 122.800,263.876 133.899,267.319 141.000 C 270.048 146.628,271.120 149.575,271.680 153.000 C 271.896 154.320,272.369 156.660,272.730 158.200 C 273.838 162.928,273.955 262.955,272.856 266.270 C 272.431 267.552,271.961 269.183,271.811 269.895 C 271.661 270.608,271.377 271.290,271.181 271.412 C 270.984 271.534,270.479 272.391,270.059 273.317 C 265.879 282.523,250.394 285.831,241.438 279.431 C 238.706 277.479,234.800 272.902,234.800 271.653 C 234.800 271.282,234.496 270.545,234.125 270.015 C 232.054 267.058,231.924 264.303,231.602 216.800 C 231.418 189.523,231.149 171.987,230.901 171.000 C 230.502 169.416,229.982 167.298,229.230 164.200 C 228.628 161.721,227.187 157.865,226.613 157.200 C 226.328 156.870,225.964 156.172,225.804 155.650 C 225.458 154.516,220.994 149.960,219.356 149.068 C 209.129 143.503,194.506 144.503,184.066 151.481 C 180.921 153.583,175.560 158.989,174.404 161.225 C 174.127 161.761,173.583 162.560,173.196 163.000 C 172.809 163.440,172.360 164.250,172.199 164.800 C 172.037 165.350,171.678 166.070,171.400 166.400 C 171.122 166.730,170.769 167.450,170.615 168.000 C 170.462 168.550,170.007 169.900,169.605 171.000 C 169.202 172.100,168.672 174.440,168.427 176.200 C 168.182 177.960,167.788 180.300,167.551 181.400 C 167.266 182.720,167.064 196.662,166.957 222.400 C 166.775 265.887,166.805 265.392,163.902 271.600 C 162.385 274.843,157.358 280.024,154.967 280.808 C 154.105 281.090,152.968 281.602,152.440 281.946 C 150.426 283.256,140.706 282.824,137.600 281.287 C 131.255 278.146,127.939 274.111,125.859 267.000 C 125.051 264.237,125.039 263.333,124.908 197.800 L 124.776 131.400 125.628 128.200 C 126.855 123.586,129.033 119.478,131.194 117.701 C 134.313 115.136,136.326 114.184,140.000 113.538 C 142.090 113.170,143.890 112.853,144.000 112.834 C 144.110 112.814,145.820 113.094,147.800 113.456 M57.712 186.236 C 62.947 188.414,66.047 193.594,67.389 202.400 C 67.674 204.270,68.109 206.520,68.357 207.400 C 68.604 208.280,68.988 212.690,69.208 217.200 C 69.429 221.710,69.864 227.380,70.174 229.800 C 70.484 232.220,70.848 237.440,70.983 241.400 C 71.118 245.360,71.491 250.760,71.813 253.400 C 72.135 256.040,72.578 262.250,72.797 267.200 C 73.016 272.150,73.376 277.370,73.597 278.800 C 73.817 280.230,74.180 285.720,74.402 291.000 C 74.625 296.280,74.985 303.387,75.203 306.793 C 75.917 317.931,75.322 326.286,73.572 329.712 C 73.148 330.544,72.800 331.431,72.800 331.683 C 72.800 334.531,65.303 341.565,60.465 343.255 C 56.367 344.687,55.053 344.872,50.200 344.700 C 45.477 344.534,44.958 344.413,41.100 342.584 C 37.794 341.016,34.596 337.777,33.810 335.200 C 33.643 334.650,33.277 333.930,32.997 333.600 C 32.718 333.270,32.302 332.190,32.074 331.200 C 31.846 330.210,31.384 328.680,31.047 327.800 C 30.711 326.920,30.424 325.480,30.410 324.600 C 30.397 323.720,30.122 321.290,29.800 319.200 C 29.039 314.262,29.041 303.381,29.804 296.200 C 30.131 293.120,30.403 289.070,30.408 287.200 C 30.413 285.330,30.684 281.910,31.010 279.600 C 31.336 277.290,31.786 272.250,32.011 268.400 C 32.236 264.550,32.682 259.510,33.002 257.200 C 33.322 254.890,33.773 249.688,34.004 245.639 C 34.235 241.590,34.592 237.529,34.797 236.613 C 35.002 235.697,35.362 231.630,35.595 227.574 C 35.829 223.518,36.281 218.400,36.599 216.200 C 36.917 214.000,37.295 210.400,37.440 208.200 C 37.584 206.000,37.951 203.452,38.254 202.537 C 38.558 201.622,38.986 199.912,39.204 198.737 C 39.599 196.611,39.822 196.013,41.635 192.200 C 44.481 186.217,51.453 183.630,57.712 186.236 M353.200 237.879 C 360.101 240.455,367.977 248.540,368.004 253.075 C 368.007 253.474,368.277 254.684,368.604 255.764 C 369.352 258.228,369.365 261.274,368.639 263.827 C 368.331 264.912,367.968 266.449,367.832 267.243 C 367.239 270.710,362.298 277.157,358.987 278.783 C 358.334 279.103,357.530 279.581,357.200 279.844 C 354.225 282.214,342.753 283.357,339.000 281.658 C 338.120 281.259,336.905 280.810,336.301 280.659 C 333.262 279.902,327.393 274.912,325.769 271.704 C 325.350 270.877,324.780 269.916,324.503 269.568 C 323.103 267.812,322.211 259.785,322.983 255.888 C 324.776 246.835,329.455 241.377,338.600 237.669 C 341.413 236.528,349.910 236.650,353.200 237.879 " stroke="none" fill="#e31323" fill-rule="evenodd"></path></g></svg>